# xmcd CD database file
#
# Track frame offsets:
#	150
#	15909
#	36500
#	50166
#	73317
#	99838
#	130266
#	152710
#	176754
#	199956
#	219379
#
# Disc length: 3388 seconds
#
# Revision: 1
# Processed by: cddbd v1.5.2PL0 Copyright (c) Steve Scherf et al.
# Submitted via: CDex 1.40Release
#
DISCID=9e0d3a0b
DTITLE=Darrell Mansfield - Shades
DYEAR=2007
DGENRE=Blues
TTITLE0=Home Run
TTITLE1=The Mission
TTITLE2=Nobody's Fault But Mine
TTITLE3=Dreamin' Schemin'
TTITLE4=Trouble
TTITLE5=Get Ready
TTITLE6=Thunder and Lighting
TTITLE7=Million $ Feeling
TTITLE8=Tell The Truth
TTITLE9=Never Heard A Man
TTITLE10=Jesus Coming Soon
EXTD=YEAR: 2007 ID3G: 0
EXTT0=
EXTT1=
EXTT2=
EXTT3=
EXTT4=
EXTT5=
EXTT6=
EXTT7=
EXTT8=
EXTT9=
EXTT10=
PLAYORDER=
